<?xml version="1.0" encoding="UTF-8"?>
<svg id="Layer_1" data-name="Layer 1" xmlns="http://www.w3.org/2000/svg" viewBox="0 0 200.56 95.9">
  <defs>
    <style>
      .cls-1 {
        fill: #bebdab;
      }
    </style>
  </defs>
  <path class="cls-1" d="M184.86,69.28c-2.83-1.74-4.83-2.01-8.69-5.01-3.33-2.59-4.64-4.56-9.52-10.02-1.76-1.97-4.37-4.81-7.68-8.18-4.89-2.96-9.24-4.99-12.53-6.35-4.51-1.87-11.54-4.71-21.04-5.68-2.78-.28-5.1-.34-6.68-.33-.76-.97-2.36-2.75-5.01-4.01-2.69-1.27-5.11-1.37-6.35-1.34-2.35-2.35-5.75-5.82-9.69-10.19-8.77-9.73-10.76-13.38-14.7-13.53-1.03-.04-4.14.09-11.52,8.85-3.84,4.55-9.06,11.71-13.53,21.88-1.95,2.9-3.9,5.79-5.85,8.69-1.31.43-3.71,1.42-5.85,3.67-1.25,1.32-2.03,2.66-2.51,3.67-1.52-1.35-3.92-3.49-6.85-6.18-4.1-3.76-4.38-4.14-5.18-4.34-6.35-1.62-15.88,15.55-17.54,18.54-3.58,6.45-8.23,16.51-11.02,30.23,64.61-.64,129.22-1.28,193.83-1.92-3.2-11.08-8.14-16.01-12.11-18.46ZM84.79,70.32c-.87,1-7.4,7.92-8.01,7.92-1.51,0-5.45-3.77-6.97-3.77-1.69,0-5.19,3.25-7.7,3.64-1.43.22-2.99.35-4.46.35-.39,0-1,0-1-.56,0-.61.48-.65.91-.78,2.64-.65,3.16-3.2,3.16-5.58v-15.49c0-1.47-.17-2.94-.17-4.41,0-1.64-3.59-2.34-3.59-3.42,0-.13.09-.17.13-.3.3-.52.91-.65,1.47-.65,1.73,0,3.42.43,5.19.43,2.55,0,5.11-.43,7.7-.43.52,0,1.77.13,1.77.87,0,1.26-4.67.74-6.19,2.99-.13.22-.43.78-.43,1v21.21c0,.35,0,.95.3.95.74,0,5.84-4.11,6.28-4.11,1,0,5.41,3.46,6.1,3.46,1.04,0,4.54-4.89,5.32-4.89.39,0,.74.52.74.87,0,.09-.48.61-.56.74ZM116.9,70.73c-2.94,4.41-8.05,6.23-13.2,6.23-8.44,0-16.75-7.27-16.75-15.93,0-7.7,9.39-15.23,16.75-15.23,3.59,0,7.36.39,10.56,2.25.56.35,3.12,2.16,3.12,2.77,0,.3-1.51,1.56-2.68,2.51l-1.3,1c-1.47-3.33-5.06-6.02-8.79-6.02-8.27,0-11.08,6.32-11.08,13.59,0,6.79,7.18,11.25,13.37,11.25,7.31,0,9.22-5.32,9.95-5.32.22,0,1.21.43,1.21.65,0,.26-1,1.95-1.17,2.25ZM153.25,48.99c-.35,0-.87-.09-1.6-.09-.26,0-1.73,0-1.73.22v10.73c0,6.02-.13,12.07-.13,18.13,0,.61-.52.74-1,.74-.61,0-1.21-.13-1.82-.13,0,0-.09-1.95-.09-2.94,0-2.03-14.84-17.7-17.31-20.21-.17.13-.39.26-.39.48v6.15c0,4.11,0,8.18-.13,12.29-.09,3.29-2.38,10.17-5.32,11.9-.09.09-.22.09-.3.09-.48,0-.87-.52-.87-.95,0-.04.04-.13.04-.17,2.94-3.85,3.33-7.88,3.33-12.59l-.04-19.17c0-4.33-4.37-3.07-4.37-4.8,0-1.6,4.41-1.73,6.71-1.73h1c2.81,0,2.55,1.82,3.46,2.25,4.85,5.41,9.56,10.99,14.28,16.53,0-3.98.09-7.92.09-11.9,0-.69,0-4.46-.35-4.8,0,0-2.94-.09-3.29-.09h-.17c-.26,0-.3-.04-.35-.39-.04-.17-.04-.35-.04-.48v-.65c0-.26,0-.43.04-.52.09-.13.22-.13.61-.17.52-.04,1.08-.04,1.64-.04,2.73,0,5.45.13,8.18.13.48,0,.65.09.65.56,0,1.38-.09,1.64-.74,1.64Z"/>
</svg>